PathFileType	4	(X/Y/Z)	E:\Qualisys_Data\Carbon_Farble_Plate\Data\Amateur_Runner\S1\T2\S1T2V21_c3d.trc
DataRate	CameraRate	NumFrames	NumMarkers	Units	OrigDataRate	OrigDataStartFrame	OrigNumFrames
200.000000	200.000000	4	39	mm	200.000000	71	284
Frame#	Time	LSHO			RSHO			LICST			RICST			LASIS			LHEEL			RASIS			LTROC			RTROC			SACR			LTH1			LSK4			LTH2			LTH3			RHM5			LSK2			LTH4			RTH1			LTOE			RTH2			RTH3			RTH4			LLEP			RLEP			LSK1			LSK3			RSK1			LHM5			RSK2			LFT1			RSK3			RSK4			LLME			RLME			RTOE			RHEEL			RFT1			RFT2			LFT2			
		X1	Y1	Z1	X2	Y2	Z2	X3	Y3	Z3	X4	Y4	Z4	X5	Y5	Z5	X6	Y6	Z6	X7	Y7	Z7	X8	Y8	Z8	X9	Y9	Z9	X10	Y10	Z10	X11	Y11	Z11	X12	Y12	Z12	X13	Y13	Z13	X14	Y14	Z14	X15	Y15	Z15	X16	Y16	Z16	X17	Y17	Z17	X18	Y18	Z18	X19	Y19	Z19	X20	Y20	Z20	X21	Y21	Z21	X22	Y22	Z22	X23	Y23	Z23	X24	Y24	Z24	X25	Y25	Z25	X26	Y26	Z26	X27	Y27	Z27	X28	Y28	Z28	X29	Y29	Z29	X30	Y30	Z30	X31	Y31	Z31	X32	Y32	Z32	X33	Y33	Z33	X34	Y34	Z34	X35	Y35	Z35	X36	Y36	Z36	X37	Y37	Z37	X38	Y38	Z38	X39	Y39	Z39	

72	0.355	-1191.817260742188	1534.589233398438	-576.8414306640625	-1141.62255859375	1541.06787109375	-259.0759582519531	-1169.957153320312	1068.137451171875	-527.9688110351562	-1155.652954101562	1087.658447265625	-232.6566925048828	-1123.414428710938	1030.966918945312	-501.1015625	-980.0513916015624	99.0826416015625	-424.1858215332031	-1119.0302734375	1038.156860351562	-240.6980895996094	-1218.984375	940.7801513671876	-545.0079956054688	-1234.706420898438	957.51708984375	-200.0117797851562	-1282.203125	1090.596313476562	-372.3930358886719	-1058.036010742188	815.971923828125	-517.115478515625	-1026.417114257812	265.0214233398438	-462.8450012207031	-1130.224609375	788.9884033203125	-555.7661743164062	-1029.703002929688	716.1826782226562	-505.5444641113281	-1669.607299804688	227.0165710449219	-259.1095581054688	-1045.526123046875	359.9781188964844	-501.8665161132812	-1106.897094726562	692.2162475585938	-534.3067626953125	-1132.945434570312	805.12744140625	-238.1139373779297	-745.6793212890625	199.374267578125	-456.2286987304688	-1204.5205078125	815.1760864257812	-206.05517578125	-1152.606689453125	707.0724487304688	-248.2204742431641	-1227.068481445312	719.0366821289062	-222.0486297607422	-1018.251953125	574.0393676757812	-488.7297058105469	-1253.62158203125	549.0430908203125	-262.3412780761719	-963.3616943359376	373.2229309082031	-499.1344909667969	-951.1621704101562	272.4143676757812	-493.0484313964844	-1420.22265625	456.8487854003906	-249.3082122802734	-796.95263671875	137.2594604492188	-514.3235473632812	-1457.388916015625	528.250732421875	-262.9259033203125	-955.0491333007812	78.75900268554688	-400.9344482421875	-1508.095092773438	407.8356628417969	-262.1189880371094	-1542.872192382812	478.3183288574219	-285.3874816894531	-947.6420288085938	145.2836151123047	-482.525390625	-1638.334350585938	374.0850219726562	-266.0281982421875	-1627.915771484375	178.5700378417969	-332.7581176757812	-1685.933959960938	422.5942687988281	-309.5404663085938	-1711.640991210938	405.1708374023438	-342.7824096679688	-1716.837158203125	410.9588928222656	-287.5766296386719	-962.7314453125	70.46549987792969	-453.6283874511719
73	0.36	-1169.23046875	1531.329956054688	-577.86474609375	-1120.88818359375	1538.958618164062	-260.0218200683594	-1149.259033203125	1065.645751953125	-528.1656494140625	-1135.393310546875	1084.816040039062	-232.2725982666016	-1104.213012695312	1030.292846679688	-501.3104553222656	-965.9209594726562	94.97147369384766	-422.0443420410156	-1098.353637695312	1035.819213867188	-240.7842254638672	-1199.267578125	938.7734985351562	-544.7439575195312	-1212.847900390625	954.084716796875	-199.2248382568359	-1262.0302734375	1087.293334960938	-372.2937622070312	-1039.204833984375	814.7693481445312	-518.0931396484375	-1011.418518066406	261.7581481933594	-461.7324523925781	-1111.338500976562	786.5745849609375	-556.5277709960938	-1009.691040039062	715.5155639648438	-507.5520935058594	-1647.220825195312	233.416259765625	-259.2127075195312	-1029.632446289062	356.2801208496094	-501.1575622558594	-1087.4658203125	690.4625244140625	-534.2208862304688	-1109.325805664062	803.0824584960938	-238.0174560546875	-731.9608154296875	194.784423828125	-457.0775451660156	-1180.674926757812	811.46630859375	-205.9344177246094	-1126.649291992188	704.6483154296875	-247.6117401123047	-1201.488525390625	714.9290771484375	-221.9918670654297	-999.7346801757812	571.3341064453125	-488.4987487792969	-1224.859497070312	544.8788452148438	-262.2253723144531	-947.2456665039062	368.7806396484375	-497.6898803710938	-935.9901733398438	268.1989135742188	-491.2872009277344	-1392.355346679688	456.7467651367188	-249.4482727050781	-784.2962036132812	132.3199768066406	-513.9014282226562	-1428.068115234375	528.8253173828125	-263.0264282226562	-940.8775024414062	74.47138977050781	-398.5467834472656	-1481.100219726562	409.5915222167969	-262.1293029785156	-1514.15283203125	480.4375610351562	-285.0470275878906	-934.0442504882812	140.7107238769531	-480.6404418945312	-1612.08056640625	380.1683654785156	-266.1380004882812	-1606.373657226562	184.3212738037109	-332.7632141113281	-1659.584350585938	429.7895812988281	-310.2701110839844	-1685.28662109375	412.4920349121094	-343.3003234863281	-1690.208251953125	418.0130920410156	-287.4651489257812	-949.55126953125	66.11775207519531	-451.085205078125
74	0.365	-1146.89453125	1527.968872070312	-578.6537475585938	-1100.297241210938	1536.46923828125	-260.5660095214844	-1129.641357421875	1063.084350585938	-527.9490966796875	-1115.421875	1082.047607421875	-232.0468444824219	-1083.884399414062	1027.749145507812	-501.7753601074219	-953.3677368164062	90.39163970947266	-419.6165771484375	-1077.932739257812	1032.873657226562	-241.0613861083984	-1179.063720703125	936.6886596679688	-544.8225708007812	-1191.367065429688	949.9618530273438	-198.6588439941406	-1242.173583984375	1084.17333984375	-371.80908203125	-1019.359985351562	814.0244140625	-519.6870727539062	-997.3455810546876	257.9222412109375	-460.670166015625	-1093.399291992188	784.6473999023438	-556.2213745117188	-989.387939453125	715.0589599609375	-508.8235168457031	-1622.363403320312	240.3361358642578	-258.3515930175781	-1014.492736816406	352.6796875	-500.9150695800781	-1067.925903320312	689.1679077148438	-533.13330078125	-1085.599609375	800.9205932617188	-238.1061859130859	-719.655517578125	189.4741058349609	-457.9050903320312	-1157.363037109375	807.8004150390625	-206.0234527587891	-1101.009033203125	701.5765991210938	-247.1295928955078	-1175.966064453125	710.790283203125	-221.6500244140625	-981.4837646484376	567.9171752929688	-488.1484069824219	-1196.138793945312	541.0853271484375	-261.6878356933594	-931.5059204101562	364.8219604492188	-496.4941711425781	-921.2837524414062	264.0097351074219	-489.6112365722656	-1364.820068359375	455.2322387695312	-250.8416442871094	-772.63232421875	126.5592346191406	-513.9486083984375	-1398.325805664062	528.9109497070312	-262.859619140625	-928.2476196289062	70.20333099365234	-396.6105041503906	-1454.310180664062	411.1275939941406	-262.3520202636719	-1485.736328125	482.9900207519531	-285.2998962402344	-921.431640625	136.1441650390625	-478.894775390625	-1585.333374023438	385.7479553222656	-266.212890625	-1583.016479492188	189.4727783203125	-331.7301330566406	-1632.21484375	436.1133728027344	-311.0668334960938	-1658.0263671875	418.9825744628906	-343.4368591308594	-1662.333984375	425.3407592773438	-287.5094604492188	-937.0995483398438	61.05588150024414	-448.5770263671875
75	0.37	-1124.962524414062	1524.3603515625	-579.669677734375	-1079.916748046875	1533.8232421875	-261.367431640625	-1110.535888671875	1060.829345703125	-528.4766235351562	-1095.316284179688	1078.99169921875	-231.8824005126953	-1063.968505859375	1025.633911132812	-502.1554565429688	-942.2236938476562	85.52660369873047	-417.8737182617188	-1057.714599609375	1029.739501953125	-241.3603820800781	-1160.354858398438	933.9700927734376	-544.3037109375	-1169.557495117188	945.79541015625	-198.1992645263672	-1221.134887695312	1080.493530273438	-371.27490234375	-999.1532592773438	813.1549682617188	-522.19384765625	-983.83056640625	254.1677703857422	-459.5359497070312	-1074.369873046875	782.3250122070312	-556.1940307617188	-969.0309448242188	713.9642944335938	-509.1690673828125	-1597.366577148438	245.9666595458984	-257.2769165039062	-999.42919921875	349.2747802734375	-499.9102478027344	-1048.263793945312	687.78759765625	-530.9600219726562	-1061.637451171875	798.676513671875	-237.8890686035156	-708.3622436523438	183.0714416503906	-459.1383056640625	-1134.105590820312	803.977783203125	-205.5846252441406	-1074.801513671875	698.9720458984375	-246.3966369628906	-1150.7587890625	706.3527221679688	-221.6950378417969	-963.3451538085938	564.7526245117188	-488.2611389160156	-1166.731079101562	536.8584594726562	-261.2425842285156	-916.6036987304688	359.8670043945312	-495.5576782226562	-907.6904296875	259.3277893066406	-488.7084655761719	-1336.44873046875	454.3941650390625	-250.4229125976562	-761.9512329101562	119.6087265014648	-513.1218872070312	-1367.30322265625	529.3295288085938	-262.1444396972656	-917.6151123046876	65.78804016113281	-394.0097351074219	-1426.510986328125	412.6863403320312	-262.8769226074219	-1456.693237304688	484.7796630859375	-285.5843505859375	-910.2846069335938	131.0076293945312	-477.0881652832031	-1558.075073242188	390.9547729492188	-266.7424011230469	-1559.869140625	194.2324981689453	-331.7935791015625	-1603.717529296875	441.9491577148438	-311.20068359375	-1630.170043945312	424.8739013671875	-343.6032409667969	-1634.895629882812	431.9014587402344	-288.6498718261719	-926.3245849609376	55.87091827392578	-446.2836608886719
